<?xml version="1.0" encoding="utf-8"?>
<!-- Generator: Adobe Illustrator 25.2.3, SVG Export Plug-In . SVG Version: 6.00 Build 0)  -->
<svg version="1.1" id="Layer_1" xmlns="http://www.w3.org/2000/svg" xmlns:xlink="http://www.w3.org/1999/xlink" x="0px" y="0px"
	 viewBox="0 0 321.2 321.2" style="enable-background:new 0 0 321.2 321.2;" xml:space="preserve">
<style type="text/css">
	.st0{fill:none;stroke:#374431;stroke-miterlimit:10;}
</style>
<g>
	<g>
		<path class="st0" d="M281.1,40.2v0.2c0,22.1,17.9,40,40,40h0.2V40.2L281.1,0l-40.2,40.2v40.2h0.2c22.1,0,40-17.9,40-40V40.2
			l20.1-20.1"/>
		<line class="st0" x1="321.2" y1="40.2" x2="240.9" y2="40.2"/>
	</g>
	<g>
		<path class="st0" d="M200.8,40.2V40c0-22.1-17.9-40-40-40h-0.2v40.2l40.2,40.2L241,40.2V0h-0.2c-22.1,0-40,17.9-40,40V40.2
			l-20.1,20.1"/>
		<line class="st0" x1="160.6" y1="40.2" x2="240.9" y2="40.2"/>
	</g>
	<g>
		<path class="st0" d="M40.2,120.5v0.2c0,22.1-17.9,40-40,40H0v-40.2l40.2-40.2l40.2,40.2v40.2h-0.2c-22.1,0-40-17.9-40-40
			L40.2,120.5l-20.1-20.1"/>
		<line class="st0" x1="0" y1="120.5" x2="80.3" y2="120.5"/>
	</g>
	<g>
		<path class="st0" d="M120.5,120.5v-0.2c0-22.1,17.9-40,40-40h0.2v40.2l-40.2,40.2l-40.2-40.2V80.3h0.2c22.1,0,40,17.9,40,40V120.5
			l20.1,20.1"/>
		<line class="st0" x1="160.6" y1="120.5" x2="80.3" y2="120.5"/>
	</g>
	<g>
		<path class="st0" d="M120.5,40.2v0.2c0,22.1,17.9,40,40,40h0.2V40.2L120.5,0L80.3,40.2v40.2h0.2c22.1,0,40-17.9,40-40V40.2
			l20.1-20.1"/>
		<line class="st0" x1="160.6" y1="40.2" x2="80.3" y2="40.2"/>
	</g>
	<g>
		<path class="st0" d="M40.2,40.2V40c0-22.1-17.9-40-40-40H0v40.2l40.2,40.2l40.2-40.2V0h-0.2c-22.1,0-40,17.9-40,40L40.2,40.2
			l-20.1,20"/>
		<line class="st0" x1="0" y1="40.2" x2="80.3" y2="40.2"/>
	</g>
	<g>
		<path class="st0" d="M281.1,120.5v-0.2c0-22.1,17.9-40,40-40h0.2v40.2l-40.2,40.2l-40.2-40.2V80.3h0.2c22.1,0,40,17.9,40,40V120.5
			l20.1,20.1"/>
		<line class="st0" x1="321.2" y1="120.5" x2="240.9" y2="120.5"/>
	</g>
	<g>
		<path class="st0" d="M281.1,200.8v0.2c0,22.1,17.9,40,40,40h0.2v-40.2l-40.2-40.2l-40.2,40.2V241h0.2c22.1,0,40-17.9,40-40V200.8
			l20.1-20.1"/>
		<line class="st0" x1="321.2" y1="200.8" x2="240.9" y2="200.8"/>
	</g>
	<g>
		<path class="st0" d="M200.8,200.8v-0.2c0-22.1-17.9-40-40-40h-0.2v40.2l40.2,40.2l40.2-40.2v-40.2h-0.2c-22.1,0-40,17.9-40,40
			V200.8l-20.1,20.1"/>
		<line class="st0" x1="160.6" y1="200.8" x2="240.9" y2="200.8"/>
	</g>
	<g>
		<path class="st0" d="M120.5,200.8v0.2c0,22.1,17.9,40,40,40h0.2v-40.2l-40.2-40.2l-40.2,40.2V241h0.2c22.1,0,40-17.9,40-40V200.8
			l20.1-20.1"/>
		<line class="st0" x1="160.6" y1="200.8" x2="80.3" y2="200.8"/>
	</g>
	<g>
		<path class="st0" d="M40.2,200.8v-0.2c0-22.1-17.9-40-40-40H0v40.2L40.2,241l40.2-40.2v-40.2h-0.2c-22.1,0-40,17.9-40,40
			L40.2,200.8l-20.1,20.1"/>
		<line class="st0" x1="0" y1="200.8" x2="80.3" y2="200.8"/>
	</g>
	<g>
		<path class="st0" d="M200.8,120.5v0.2c0,22.1-17.9,40-40,40h-0.2v-40.2l40.2-40.2l40.2,40.2v40.2h-0.2c-22.1,0-40-17.9-40-40
			V120.5l-20.1-20.1"/>
		<line class="st0" x1="160.6" y1="120.5" x2="240.9" y2="120.5"/>
	</g>
	<g>
		<path class="st0" d="M40.2,281.1v0.2c0,22.1-17.9,40-40,40H0v-40.2l40.2-40.2l40.2,40.2v40.2h-0.2c-22.1,0-40-17.9-40-40
			L40.2,281.1L20.1,261"/>
		<line class="st0" x1="0" y1="281.1" x2="80.3" y2="281.1"/>
	</g>
	<g>
		<path class="st0" d="M120.5,281.1v-0.2c0-22.1,17.9-40,40-40h0.2v40.2l-40.2,40.2l-40.2-40.2v-40.2h0.2c22.1,0,40,17.9,40,40
			V281.1l20.1,20.1"/>
		<line class="st0" x1="160.6" y1="281.1" x2="80.3" y2="281.1"/>
	</g>
	<g>
		<path class="st0" d="M281.1,281.1v-0.2c0-22.1,17.9-40,40-40h0.2v40.2l-40.2,40.2l-40.2-40.2v-40.2h0.2c22.1,0,40,17.9,40,40
			V281.1l20.1,20.1"/>
		<line class="st0" x1="321.2" y1="281.1" x2="240.9" y2="281.1"/>
	</g>
	<g>
		<path class="st0" d="M200.8,281.1v0.2c0,22.1-17.9,40-40,40h-0.2v-40.2l40.2-40.2l40.2,40.2v40.2h-0.2c-22.1,0-40-17.9-40-40
			V281.1L180.7,261"/>
		<line class="st0" x1="160.6" y1="281.1" x2="240.9" y2="281.1"/>
	</g>
</g>
</svg>
